<svg width="131" height="24" viewBox="0 0 131 24" fill="none" xmlns="http://www.w3.org/2000/svg">
<path fill-rule="evenodd" clip-rule="evenodd" d="M28.5134 13.5358V13.4872C28.5134 9.65107 31.6018 6.53842 35.7601 6.53842C39.894 6.53842 42.958 9.59635 42.958 13.4324V13.4872C42.958 17.3172 39.8697 20.4298 35.7114 20.4298C31.5774 20.4298 28.5134 17.3719 28.5134 13.5358ZM39.2253 13.5358V13.4872C39.2253 11.5174 37.8027 9.79697 35.7114 9.79697C33.5472 9.79697 32.2462 11.4688 32.2462 13.4324V13.4872C32.2462 15.4508 33.6687 17.1713 35.7601 17.1713C37.9243 17.1713 39.2253 15.4994 39.2253 13.5358Z" fill="#273F72"/>
<path d="M50.7208 20.4055H50.5201C49.4988 20.4055 48.8058 19.7611 48.3802 18.7641L44.2949 9.3228C44.1976 9.07354 44.0942 8.75134 44.0942 8.40481C44.0942 7.50506 44.921 6.63571 45.9424 6.63571C46.9637 6.63571 47.5109 7.20717 47.7844 7.97925L50.6478 15.7244L53.5598 7.93062C53.8091 7.28013 54.3319 6.63571 55.3289 6.63571C56.326 6.63571 57.1467 7.40779 57.1467 8.42913C57.1467 8.75134 57.0251 9.15258 56.9461 9.3228L52.8607 18.7641C52.4412 19.7368 51.7421 20.4055 50.7208 20.4055Z" fill="#273F72"/>
<path fill-rule="evenodd" clip-rule="evenodd" d="M65.2875 20.4298C61.2812 20.4298 58.3145 17.6211 58.3145 13.5358V13.4872C58.3145 9.67539 61.0319 6.53842 64.9167 6.53842C69.3729 6.53842 71.3426 10.1982 71.3426 12.9583C71.3426 14.0586 70.5705 14.7821 69.5735 14.7821H62.0776C62.4484 16.4965 63.6461 17.3962 65.3361 17.3962C66.3818 17.3962 67.2572 17.0679 68.0293 16.4965C68.3029 16.2958 68.5521 16.1986 68.9473 16.1986C69.7984 16.1986 70.4185 16.8491 70.4185 17.6941C70.4185 18.1926 70.1936 18.5634 69.92 18.8127C68.7528 19.8097 67.2329 20.4298 65.2875 20.4298ZM67.7314 12.4111C67.5065 10.721 66.5095 9.57203 64.9167 9.57203C63.3482 9.57203 62.3269 10.6967 62.029 12.4111H67.7314Z" fill="#273F72"/>
<path d="M73.3489 8.5264C73.3489 7.48074 74.1939 6.63571 75.2396 6.63571C76.2852 6.63571 77.1363 7.48074 77.1363 8.5264V9.12826C77.6835 7.83335 78.5771 6.63571 79.7018 6.63571C80.8691 6.63571 81.5439 7.40779 81.5439 8.47776C81.5439 9.47478 80.8934 10.0706 80.1213 10.2469C78.2063 10.6967 77.1363 12.1619 77.1363 14.855V18.3932C77.1363 19.4389 76.2852 20.2839 75.2396 20.2839C74.1939 20.2839 73.3489 19.4389 73.3489 18.3932V8.5264Z" fill="#273F72"/>
<path d="M85.1486 16.3506V10.0219H85.0209C84.1273 10.0219 83.4038 9.29846 83.4038 8.40479C83.4038 7.50504 84.1273 6.78768 85.0209 6.78768H85.1486V5.11585C85.1486 4.07019 85.9936 3.22516 87.0393 3.22516C88.0849 3.22516 88.936 4.07019 88.936 5.11585V6.78768H90.6018C91.4955 6.78768 92.2189 7.50504 92.2189 8.40479C92.2189 9.29846 91.4955 10.0219 90.6018 10.0219H88.936V15.7244C88.936 16.5998 89.3069 17.0193 90.1519 17.0193C90.2796 17.0193 90.5288 16.995 90.6018 16.995C91.4468 16.995 92.1703 17.6941 92.1703 18.5634C92.1703 19.2383 91.7204 19.7854 91.1976 19.986C90.5045 20.2596 89.854 20.3569 89.0333 20.3569C86.7171 20.3569 85.1486 19.4389 85.1486 16.3506Z" fill="#273F72"/>
<path d="M106.737 18.3932C106.737 19.4389 105.886 20.2839 104.84 20.2839C103.794 20.2839 102.949 19.4389 102.949 18.3932V18.2413C102.074 19.3599 100.955 20.3812 99.0403 20.3812C96.177 20.3812 94.5051 18.4905 94.5051 15.4265V8.5264C94.5051 7.48074 95.3502 6.63571 96.4019 6.63571C97.4475 6.63571 98.2926 7.48074 98.2926 8.5264V14.2289C98.2926 16.0223 99.1376 16.9463 100.585 16.9463C102.025 16.9463 102.949 16.0223 102.949 14.2289V8.5264C102.949 7.48074 103.794 6.63571 104.84 6.63571C105.886 6.63571 106.737 7.48074 106.737 8.5264V18.3932Z" fill="#273F72"/>
<path d="M108.84 8.5264C108.84 7.48074 109.691 6.63571 110.737 6.63571C111.783 6.63571 112.628 7.48074 112.628 8.5264V9.12826C113.175 7.83335 114.075 6.63571 115.193 6.63571C116.367 6.63571 117.035 7.40779 117.035 8.47776C117.035 9.47478 116.391 10.0706 115.619 10.2469C113.698 10.6967 112.628 12.1619 112.628 14.855V18.3932C112.628 19.4389 111.783 20.2839 110.737 20.2839C109.691 20.2839 108.84 19.4389 108.84 18.3932V8.5264Z" fill="#273F72"/>
<path fill-rule="evenodd" clip-rule="evenodd" d="M124.951 20.4298C120.938 20.4298 117.978 17.6211 117.978 13.5358V13.4872C117.978 9.67539 120.689 6.53842 124.574 6.53842C129.036 6.53842 131 10.1982 131 12.9583C131 14.0586 130.228 14.7821 129.237 14.7821H121.741C122.112 16.4965 123.309 17.3962 124.999 17.3962C126.045 17.3962 126.921 17.0679 127.693 16.4965C127.966 16.2958 128.215 16.1986 128.611 16.1986C129.456 16.1986 130.082 16.8491 130.082 17.6941C130.082 18.1926 129.857 18.5634 129.583 18.8127C128.41 19.8097 126.896 20.4298 124.951 20.4298ZM127.389 12.4111C127.17 10.721 126.173 9.57203 124.574 9.57203C123.005 9.57203 121.984 10.6967 121.686 12.4111H127.389Z" fill="#273F72"/>
<path d="M14.2273 0.629311V0.64755C14.5312 0.728608 14.8312 0.821824 15.127 0.9272C20.5741 2.83613 23.7719 8.56291 22.4831 14.2471C22.4648 14.387 22.4466 14.5268 22.4101 14.6666C22.3736 14.8064 22.3189 14.9402 22.2642 15.0739C20.5741 20.6244 14.9933 24.0106 9.32729 23.0075C9.21786 22.9893 9.10843 22.9589 9.00508 22.9346C8.84701 22.9224 8.69503 22.8981 8.53697 22.8616L8.54305 22.8373C8.51873 22.8312 8.50049 22.8251 8.47617 22.8191C8.45185 22.813 8.43362 22.813 8.40322 22.8008V22.8251C8.24516 22.7826 8.09925 22.7279 7.95942 22.661C7.85607 22.6306 7.74665 22.6002 7.6433 22.5637C2.07458 20.6062 -1.1475 14.6666 0.378431 8.8608H0.38451C0.755353 7.46254 2.18401 6.62966 3.57619 6.99443C4.97445 7.36527 5.80732 8.79393 5.44256 10.1861H5.4304C4.56105 13.4872 6.51861 16.8673 9.80148 17.7671C13.0661 18.5878 16.3794 16.6667 17.2974 13.4386C17.3095 13.396 17.3156 13.3535 17.3278 13.3109C17.3278 13.3069 17.3278 13.3048 17.3278 13.3048C17.3278 13.3048 17.3278 13.3028 17.3278 13.2987C17.3399 13.2562 17.3521 13.2136 17.3703 13.1711C18.1606 9.88821 16.1848 6.55671 12.902 5.69952V5.68736C11.5098 5.31652 10.6708 3.88786 11.0417 2.49568C11.4064 1.09742 12.8351 0.264547 14.2273 0.629311Z" fill="#E85C4A"/>
<path d="M9.53407 10.0158C10.5554 8.99442 12.209 8.99442 13.2303 10.0158C14.2517 11.0371 14.2517 12.6907 13.2303 13.712C12.209 14.7334 10.5554 14.7334 9.53407 13.712C8.51273 12.6907 8.51273 11.0371 9.53407 10.0158Z" fill="#E85C4A"/>
</svg>
